# xmcd
#
# Track frame offsets:
#	150
#	29087
#	45021
#	69099
#	91709
#	112811
#	145999
#	162087
#	190646
#	215059
#	237505
#	265823
#	292942
#	313644
#
# Disc length: 4599 seconds
#
# Revision: 0
# Processed by: cddbd v1.5.2PL0 Copyright (c) Steve Scherf et al.
# Submitted via: EasyCDDAExtractor 11.1.0.1
#
DISCID=b711f50e
DTITLE=Poco - Poco Live
DYEAR=1970
DGENRE=Classic Rock
TTITLE0=Medley: Where Did The Time Go/ Keep On Tryin/ Crazy Love
TTITLE1=Pickin Up The Pieces
TTITLE2=Bad Weather
TTITLE3=Call It Love
TTITLE4=Let's dance
TTITLE5=Magnolia
TTITLE6=You'd Better Think Twice
TTITLE7=Spellbound
TTITLE8=Indian Summer
TTITLE9=Kind Woman
TTITLE10=Rose Of Cimarron
TTITLE11=Ride The Country
TTITLE12=Good Feelin To Know
TTITLE13=Heart Of The Night
EXTD=
EXTT0=
EXTT1=
EXTT2=
EXTT3=
EXTT4=
EXTT5=
EXTT6=
EXTT7=
EXTT8=
EXTT9=
EXTT10=
EXTT11=
EXTT12=
EXTT13=
PLAYORDER=
